<?xml version="1.0" encoding="utf-8"?>
<!-- Generator: Adobe Illustrator 15.0.2, SVG Export Plug-In . SVG Version: 6.00 Build 0)  -->
<!DOCTYPE svg PUBLIC "-//W3C//DTD SVG 1.1//EN" "http://www.w3.org/Graphics/SVG/1.1/DTD/svg11.dtd">
<svg version="1.1" id="Layer_1" xmlns="http://www.w3.org/2000/svg" xmlns:xlink="http://www.w3.org/1999/xlink" x="0px" y="0px"
	 width="163.5px" height="23.234px" viewBox="0 0 163.5 23.234" enable-background="new 0 0 163.5 23.234" xml:space="preserve">
<g>
	<g>
		<polygon fill="#757575" points="0.128,0.312 0.128,1.388 5.594,1.388 5.594,15.993 6.758,15.993 6.758,1.388 12.225,1.388 
			12.225,0.312 		"/>
		<polygon fill="#757575" points="25.444,0.312 25.444,7.569 15.408,7.569 15.408,0.312 14.243,0.312 14.243,15.993 15.408,15.993 
			15.408,8.644 25.444,8.644 25.444,15.993 26.609,15.993 26.609,0.312 		"/>
		<polygon fill="#757575" points="28.948,0.312 28.948,15.993 40.214,15.993 40.214,14.919 30.113,14.919 30.113,8.624 
			39.095,8.624 39.095,7.548 30.113,7.548 30.113,1.388 40.104,1.388 40.104,0.312 		"/>
		<path fill="#757575" d="M41.357,8.196V8.152C41.357,3.584,44.875,0,49.624,0c3.202,0,5.264,1.344,6.651,3.271l-3.27,2.529
			c-0.896-1.118-1.927-1.836-3.427-1.836c-2.195,0-3.741,1.858-3.741,4.146v0.044c0,2.353,1.546,4.188,3.741,4.188
			c1.635,0,2.598-0.765,3.538-1.902l3.271,2.33c-1.479,2.039-3.472,3.539-6.944,3.539C44.963,16.304,41.357,12.88,41.357,8.196"/>
		<path fill="#757575" d="M65.14,7.839c1.478,0,2.329-0.717,2.329-1.858V5.934c0-1.231-0.896-1.858-2.353-1.858h-2.845V7.84
			L65.14,7.839L65.14,7.839z M57.927,0.312h7.413c2.397,0,4.056,0.627,5.107,1.702c0.919,0.896,1.389,2.104,1.389,3.651V5.71
			c0,2.396-1.276,3.985-3.225,4.814l3.74,5.467h-5.018l-3.159-4.75H64.13h-1.859v4.75h-4.344V0.312z"/>
		<path fill="#757575" d="M80.118,8.107c1.546,0,2.485-0.808,2.485-2.039V6.024c0-1.344-0.939-2.062-2.506-2.062h-2.039v4.145
			H80.118z M73.712,0.312h6.72c3.962,0,6.519,2.038,6.519,5.51v0.046c0,3.695-2.846,5.646-6.744,5.646h-2.15v4.479h-4.345V0.312
			L73.712,0.312z"/>
		<path fill="#757575" d="M88.713,8.196V8.152c0-4.232,3.07-8.108,7.75-8.108c2.555,0,4.168,0.764,5.736,2.062l-0.766,0.874
			c-1.229-1.075-2.666-1.882-5.039-1.882c-3.81,0-6.474,3.226-6.474,7.012v0.044c0,4.057,2.529,7.08,6.72,7.08
			c1.993,0,3.854-0.83,4.995-1.793V8.938h-5.241V7.863h6.36v6.048c-1.409,1.256-3.604,2.354-6.159,2.354
			C91.645,16.26,88.713,12.61,88.713,8.196"/>
		<path fill="#757575" d="M111.5,8.443c2.621,0,4.57-1.319,4.57-3.584V4.814c0-2.104-1.658-3.427-4.502-3.427h-5.355v7.056H111.5z
			 M105.049,0.312h6.588c1.93,0,3.475,0.604,4.41,1.546c0.74,0.739,1.189,1.792,1.189,2.912v0.044c0,2.621-1.949,4.122-4.596,4.479
			l5.178,6.698h-1.48l-4.994-6.497h-0.045h-5.084v6.497h-1.166V0.312z"/>
		<path fill="#757575" d="M133.189,8.196V8.152c0-3.875-2.822-7.056-6.697-7.056s-6.652,3.136-6.652,7.012v0.044
			c0,3.875,2.822,7.058,6.697,7.058S133.189,12.071,133.189,8.196 M118.631,8.196V8.152c0-4.277,3.158-8.108,7.906-8.108
			c4.75,0,7.863,3.785,7.863,8.064c0.02,0.021,0.02,0.021,0,0.044c0,4.279-3.158,8.108-7.908,8.108
			C121.744,16.26,118.631,12.476,118.631,8.196"/>
		<path fill="#757575" d="M136.197,9.474V0.312h1.166v9.05c0,3.697,1.992,5.825,5.307,5.825c3.182,0,5.221-1.929,5.221-5.712V0.312
			h1.164V9.34c0,4.5-2.619,6.899-6.428,6.899C138.863,16.239,136.197,13.864,136.197,9.474"/>
		<path fill="#757575" d="M157.012,9.069c2.912,0,4.883-1.521,4.883-3.854V5.173c0-2.486-1.926-3.785-4.746-3.785h-4.438V9.07
			L157.012,9.069L157.012,9.069z M151.549,0.312h5.689c3.451,0,5.822,1.771,5.822,4.794V5.15c0,3.293-2.845,4.996-6.113,4.996
			h-4.232v5.847h-1.164V0.312H151.549z"/>
	</g>
	<g>
		<polygon fill="#757575" points="5.432,18.91 5.432,22.703 8.274,22.703 8.274,22.108 6.099,22.108 6.099,21.091 8,21.091 
			8,20.491 6.099,20.491 6.099,19.507 8.246,19.507 8.246,18.91 		"/>
		<polygon fill="#757575" points="15.782,18.91 15.782,21.531 13.748,18.91 13.13,18.91 13.13,22.703 13.786,22.703 13.786,20.005 
			15.878,22.703 16.437,22.703 16.437,18.91 		"/>
		<polygon fill="#757575" points="21.253,18.91 21.253,19.525 22.455,19.525 22.455,22.703 23.129,22.703 23.129,19.525 
			24.332,19.525 24.332,18.91 		"/>
		<polygon fill="#757575" points="29.102,18.91 29.102,22.703 31.943,22.703 31.943,22.108 29.768,22.108 29.768,21.091 
			31.671,21.091 31.671,20.491 29.768,20.491 29.768,19.507 31.915,19.507 31.915,18.91 		"/>
		<g>
			<path fill="#757575" d="M38.442,20.792c0.477,0,0.781-0.25,0.781-0.637v-0.013c0-0.405-0.294-0.627-0.787-0.627h-0.97v1.271
				L38.442,20.792L38.442,20.792z M36.798,18.908h1.693c0.478,0,0.852,0.144,1.094,0.379c0.2,0.206,0.314,0.487,0.314,0.818v0.012
				c0,0.624-0.374,0.995-0.905,1.15l1.023,1.437h-0.785l-0.933-1.32h-0.011h-0.821v1.32h-0.668L36.798,18.908L36.798,18.908z"/>
		</g>
		<polygon fill="#757575" points="44.497,18.91 44.497,19.525 45.702,19.525 45.702,22.703 46.375,22.703 46.375,19.525 
			47.578,19.525 47.578,18.91 		"/>
		<path fill="#757575" d="M53.502,19.679l0.655,1.519h-1.308L53.502,19.679z M53.204,18.883l-1.67,3.819h0.682l0.393-0.915h1.792
			l0.386,0.915h0.703l-1.667-3.819H53.204z"/>
		<rect x="60.243" y="18.91" fill="#757575" width="0.667" height="3.794"/>
		<polygon fill="#757575" points="68.642,18.91 68.642,21.531 66.61,18.91 65.991,18.91 65.991,22.703 66.647,22.703 66.647,20.005 
			68.74,22.703 69.298,22.703 69.298,18.91 		"/>
		<polygon fill="#757575" points="77.36,18.91 76.206,20.703 75.051,18.91 74.342,18.91 74.342,22.703 74.996,22.703 74.996,19.993 
			76.184,21.772 76.206,21.772 77.403,19.979 77.403,22.703 78.071,22.703 78.071,18.91 		"/>
		<polygon fill="#757575" points="83.111,18.91 83.111,22.703 85.951,22.703 85.951,22.108 83.777,22.108 83.777,21.091 
			85.68,21.091 85.68,20.491 83.777,20.491 83.777,19.507 85.928,19.507 85.928,18.91 		"/>
		<polygon fill="#757575" points="93.461,18.91 93.461,21.531 91.428,18.91 90.809,18.91 90.809,22.703 91.465,22.703 
			91.465,20.005 93.557,22.703 94.115,22.703 94.115,18.91 		"/>
		<polygon fill="#757575" points="98.887,18.91 98.887,19.525 100.09,19.525 100.09,22.703 100.76,22.703 100.76,19.525 
			101.967,19.525 101.967,18.91 		"/>
		<g>
			<path fill="#757575" d="M113.842,22.097c0.801,0,1.318-0.537,1.318-1.278v-0.013c0-0.742-0.521-1.288-1.318-1.288h-0.746v2.579
				H113.842z M112.428,18.908h1.414c1.193,0,2.018,0.817,2.018,1.888v0.015c0,1.065-0.821,1.896-2.018,1.896h-1.414V18.908z"/>
		</g>
		<polygon fill="#757575" points="120.734,18.91 120.734,22.703 123.574,22.703 123.574,22.108 121.4,22.108 121.4,21.091 
			123.303,21.091 123.303,20.491 121.4,20.491 121.4,19.507 123.547,19.507 123.547,18.91 		"/>
		<g>
			<path fill="#757575" d="M128.176,22.151l0.4-0.479c0.365,0.313,0.727,0.494,1.199,0.494c0.408,0,0.672-0.188,0.672-0.479v-0.01
				c0-0.271-0.152-0.418-0.857-0.579c-0.809-0.196-1.266-0.438-1.266-1.136v-0.011c0-0.651,0.545-1.101,1.299-1.101
				c0.553,0,0.99,0.166,1.377,0.475l-0.359,0.506c-0.34-0.256-0.684-0.391-1.024-0.391c-0.396,0-0.619,0.199-0.619,0.449v0.01
				c0,0.293,0.174,0.423,0.897,0.602c0.801,0.191,1.222,0.479,1.222,1.107v0.011c0,0.712-0.562,1.134-1.355,1.134
				C129.178,22.76,128.633,22.556,128.176,22.151"/>
		</g>
		<rect x="136.006" y="18.91" fill="#757575" width="0.666" height="3.794"/>
		<g>
			<path fill="#757575" d="M141.582,20.816v-0.012c0-1.062,0.812-1.964,1.957-1.964c0.662,0,1.066,0.187,1.457,0.515l-0.422,0.506
				c-0.293-0.25-0.58-0.403-1.062-0.403c-0.697,0-1.229,0.607-1.229,1.34v0.012c0,0.777,0.514,1.354,1.287,1.354
				c0.356,0,0.684-0.108,0.918-0.283v-0.711h-0.971v-0.58h1.61v1.597c-0.373,0.317-0.91,0.59-1.58,0.59
				C142.365,22.767,141.582,21.923,141.582,20.816"/>
		</g>
		<polygon fill="#757575" points="152.717,18.91 152.717,21.531 150.686,18.91 150.066,18.91 150.066,22.703 150.723,22.703 
			150.723,20.005 152.814,22.703 153.373,22.703 153.373,18.91 		"/>
	</g>
</g>
</svg>
